{"title":"A Paying Ghost 2015 Marathi 1080p Untouched WebHD x264 AAC [TMB]","uid":15507196,"size":4124156507,"categoryP":"video","categoryS":"movies","magnet":"?xt=urn:btih:da19e9e907faf125f9a1a53f0445a88a664ecb82&amp;dn=A+Paying+Ghost+2015+Marathi+1080p+Untouched+WebHD+x264+AAC+%5BTMB%5D&amp;tr=udp%3A%2F%2Ftracker.leechers-paradise.org%3A6969&amp;tr=udp%3A%2F%2Fzer0day.ch%3A1337&amp;tr=udp%3A%2F%2Fopen.demonii.com%3A1337&amp;tr=udp%3A%2F%2Ftracker.coppersurfer.tk%3A6969&amp;tr=udp%3A%2F%2Fexodus.desync.com%3A6969","seeders":1,"leechers":0,"uploader":"Manoj_vb","files":1,"time":1470603382,"description":"http://i1306.photobucket.com/albums/s570/zyx55e/44_zpsc46e809d.gif\r\n \nhttps://postimg.org/image/i5ucz46bf/\r\n \nhttps://postimg.org/image/5d1nlg5bv/\r\n \nhttps://postimg.org/image/ulmhf4a9n/\r\n \nhttps://postimg.org/image/qqj3cjr3v/\r\n \nhttps://postimg.org/image/dnngta0vv/\r\n \nhttps://postimg.org/image/yyl0xjj0b/\r\n \nhttps://postimg.org/image/l66m1ws8r/\r\n \nhttps://postimg.org/image/fw1nam7zv/\r\n \nhttps://postimg.org/image/72aqtil17/\r\n \nhttps://postimg.org/image/yr1zerxff/\r\n \nhttps://postimg.org/image/y2t4vtypn/\r\n \nhttp://i1306.photobucket.com/albums/s570/zyx55e/oie_11162011MOJeDGQI_zpsc25b2b81.gif\r\n\r\nGeneral\r\nComplete name               : A Paying Ghost 2015 1080p Untouched WebHD x264 AAC [TMB].mp4\r\nFormat                      : MPEG-4\r\nFormat profile              : Base Media\r\nCodec ID                    : isom (isom/iso2/avc1/mp41)\r\nFile size                   : 3.84 GiB\r\nDuration                    : 2h 0mn\r\nOverall bit rate mode       : Variable\r\nOverall bit rate            : 4 558 Kbps\r\nWriting application         : Lavf56.40.101\r\n\r\nVideo\r\nFormat                      : AVC\r\nFormat/Info                 : Advanced Video Codec\r\nFormat profile              :   \r\nFormat settings, CABAC      : Yes\r\nFormat settings, ReFrames   : 1 frame\r\nFormat settings, GOP        : M=1, N=25\r\nCodec ID                    : avc1\r\nCodec ID/Info               : Advanced Video Coding\r\nDuration                    : 2h 0mn\r\nBit rate mode               : Constant\r\nBit rate                    : 4 500 Kbps\r\nWidth                       : 1 920 pixels\r\nHeight                      : 1 080 pixels\r\nDisplay aspect ratio        : 16:9\r\nFrame rate mode             : Variable\r\nFrame rate                  : 24.959 fps\r\nMinimum frame rate          : 0.177 fps\r\nMaximum frame rate          : 25.000 fps\r\nOriginal frame rate         : 25.000 fps\r\nColor space                 : YUV\r\nChroma subsampling          : 4:2:0\r\nBit depth                   : 8 bits\r\nScan type                   : Progressive\r\nBits/(Pixel*Frame)          : 0.087\r\nStream size                 : 3.79 GiB (99%)\r\n\r\nAudio\r\nFormat                      : AAC\r\nFormat/Info                 : Advanced Audio Codec\r\nFormat profile              : LC\r\nCodec ID                    : 40\r\nDuration                    : 2h 0mn\r\nBit rate mode               : Variable\r\nBit rate                    : 61.3 Kbps\r\nMaximum bit rate            : 63.8 Kbps\r\nChannel(s)                  : 2 channels\r\nChannel positions           : Front: L R\r\nSampling rate               : 48.0 KHz\r\nFrame rate                  : 46.875 fps (1024 spf)\r\nCompression mode            : Lossy\r\nStream size                 : 52.9 MiB (1%)\r\n\r\nUploaded &amp; Shared by Manojvb\r\n\r\nSeeding 24x7... Extreme Seeding...\r\n\r\n\r\n \nhttp://i1306.photobucket.com/albums/s570/zyx55e/oie_1117625zVIGKvnK_zpsc8b6e055.gif","torrent":{"xt":"urn:btih:da19e9e907faf125f9a1a53f0445a88a664ecb82","amp;dn":"A+Paying+Ghost+2015+Marathi+1080p+Untouched+WebHD+x264+AAC+%5BTMB%5D","amp;tr":["udp%3A%2F%2Ftracker.leechers-paradise.org%3A6969","udp%3A%2F%2Fzer0day.ch%3A1337","udp%3A%2F%2Fopen.demonii.com%3A1337","udp%3A%2F%2Ftracker.coppersurfer.tk%3A6969","udp%3A%2F%2Fexodus.desync.com%3A6969"],"infoHash":"da19e9e907faf125f9a1a53f0445a88a664ecb82","infoHashBuffer":{"type":"Buffer","data":[218,25,233,233,7,250,241,37,249,161,165,63,4,69,168,138,102,78,203,130]},"announce":[],"urlList":[]}}